<?xml version="1.0" encoding="UTF-8" standalone="no"?>
<!-- Created with Inkscape (http://www.inkscape.org/) -->

<svg
   xmlns:dc="http://purl.org/dc/elements/1.1/"
   xmlns:cc="http://creativecommons.org/ns#"
   xmlns:rdf="http://www.w3.org/1999/02/22-rdf-syntax-ns#"
   xmlns:svg="http://www.w3.org/2000/svg"
   xmlns="http://www.w3.org/2000/svg"
   xmlns:sodipodi="http://sodipodi.sourceforge.net/DTD/sodipodi-0.dtd"
   xmlns:inkscape="http://www.inkscape.org/namespaces/inkscape"
   width="511"
   height="92"
   viewBox="0 0 135.20208 24.341668"
   version="1.1"
   id="svg8"
   sodipodi:docname="logoNB.svg"
   inkscape:version="0.92.1 r15371">
  <defs
     id="defs2" />
  <sodipodi:namedview
     id="base"
     pagecolor="#ffffff"
     bordercolor="#666666"
     borderopacity="1.0"
     inkscape:pageopacity="0.0"
     inkscape:pageshadow="2"
     inkscape:zoom="2"
     inkscape:cx="246.13235"
     inkscape:cy="61.464885"
     inkscape:document-units="mm"
     inkscape:current-layer="layer1"
     showgrid="false"
     units="px"
     inkscape:pagecheckerboard="true"
     inkscape:snap-to-guides="false"
     inkscape:window-width="1366"
     inkscape:window-height="704"
     inkscape:window-x="0"
     inkscape:window-y="27"
     inkscape:window-maximized="1"
     showguides="false" />
  <metadata
     id="metadata5">
    <rdf:RDF>
      <cc:Work
         rdf:about="">
        <dc:format>image/svg+xml</dc:format>
        <dc:type
           rdf:resource="http://purl.org/dc/dcmitype/StillImage" />
        <dc:title></dc:title>
      </cc:Work>
    </rdf:RDF>
  </metadata>
  <g
     inkscape:label="Capa 1"
     inkscape:groupmode="layer"
     id="layer1"
     transform="translate(0,-272.65833)">
    <text
       xml:space="preserve"
       style="font-style:normal;font-weight:normal;font-size:8.46666622px;line-height:1.25;font-family:'Liberation Mono';letter-spacing:0px;word-spacing:0px;fill:#000000;fill-opacity:1;stroke:none;stroke-width:0.26458332;-inkscape-font-specification:'Liberation Mono';font-stretch:normal;font-variant:normal;"
       x="1.3229166"
       y="281.52188"
       id="text12"><tspan
         sodipodi:role="line"
         id="tspan10"
         x="1.3229166"
         y="289.01291"
         style="stroke-width:0.26458332;-inkscape-font-specification:'Liberation Mono';font-family:'Liberation Mono';font-weight:normal;font-style:normal;font-stretch:normal;font-variant:normal;" /></text>
    <text
       xml:space="preserve"
       style="font-style:normal;font-weight:normal;font-size:5.8369627px;line-height:1.25;font-family:sans-serif;letter-spacing:0px;word-spacing:0px;fill:#000000;fill-opacity:1;stroke:none;stroke-width:0.27360764"
       x="0.497273"
       y="305.89871"
       id="text856"
       transform="scale(1.0341075,0.96701744)"><tspan
         sodipodi:role="line"
         id="tspan854"
         x="0.497273"
         y="305.89871"
         style="stroke-width:0.27360764"><tspan
           style="font-style:normal;font-variant:normal;font-weight:normal;font-stretch:normal;font-size:4.97845554px;font-family:serif;-inkscape-font-specification:serif;stroke-width:0.27360764"
           id="tspan858">Courtage fruits secs. Dried fruit and nut brokerage</tspan></tspan></text>
    <text
       xml:space="preserve"
       style="font-style:normal;font-variant:normal;font-weight:normal;font-stretch:normal;font-size:16.93333244px;line-height:1.25;font-family:'Liberation Mono';-inkscape-font-specification:'Liberation Mono';letter-spacing:0px;word-spacing:0px;fill:#000000;fill-opacity:1;stroke:none;stroke-width:0.26458332"
       x="1.3229166"
       y="290.5177"
       id="text1561"><tspan
         sodipodi:role="line"
         id="tspan1559"
         x="1.3229166"
         y="305.58459"
         style="stroke-width:0.26458332" /></text>
    <g
       aria-label="NutBrokers"
       transform="matrix(0.99967803,-0.00533686,0,1.0003221,0,0)"
       style="font-style:normal;font-variant:normal;font-weight:normal;font-stretch:normal;font-size:14.84055042px;line-height:1.25;font-family:'Liberation Mono';-inkscape-font-specification:'Liberation Mono';letter-spacing:0px;word-spacing:0px;fill:#000000;fill-opacity:1;stroke:none;stroke-width:0.2318836"
       id="text1596">
      <path
         d="m 0.62515021,288.59961 v -1.28397 l 1.91221029,-8.6e-4 v -13.27467 l -1.91221029,8.7e-4 v -1.28397 l 4.67540399,-10e-4 9.0204258,11.2132 v -9.93212 l -1.902199,8.7e-4 v -1.28397 l 5.226041,-0.002 v 1.28397 l -1.91221,8.7e-4 v 14.55864 l -2.623032,3.9e-4 -9.160588,-11.44662 v 10.16558 l 1.9021985,-8.7e-4 v 1.28397 z"
         style="font-style:normal;font-variant:normal;font-weight:bold;font-stretch:normal;font-size:20.64142799px;font-family:serif;-inkscape-font-specification:'serif Bold';fill:#db7c52;fill-opacity:1;stroke-width:0.23713447"
         id="path2325"
         inkscape:connector-curvature="0" />
      <path
         d="m 31.365558,277.88582 v 9.49425 h 1.521903 v 1.21954 h -5.099884 v -1.51182 q -0.634966,0.95748 -1.46143,1.38079 -0.826463,0.42332 -2.086316,0.42332 -1.804109,0 -2.731361,-1.05828 -0.917173,-1.06836 -0.917173,-3.13451 v -5.59375 h -1.531981 v -1.21954 h 5.099885 v 6.25895 q 0,1.99561 0.332601,2.53986 0.332601,0.53418 1.219537,0.53418 1.078434,0 1.572296,-0.79623 0.503942,-0.79622 0.503942,-2.52978 v -4.78744 h -1.300169 v -1.21954 z"
         style="font-style:normal;font-variant:normal;font-weight:bold;font-stretch:normal;font-size:20.64142799px;font-family:serif;-inkscape-font-specification:'serif Bold';fill:#db7c52;fill-opacity:1;stroke-width:0.2318836"
         id="path2327" />
      <path
         d="m 35.628902,279.10536 h -1.552138 v -1.21954 h 1.552138 v -3.32601 h 3.567903 v 3.32601 h 2.973253 v 1.21954 h -2.973253 v 6.56131 q 0,1.40096 0.221735,1.74364 0.221734,0.34268 0.806305,0.34268 0.645045,0 0.957488,-0.43339 0.312444,-0.43339 0.332602,-1.34048 h 1.501744 q -0.09071,1.61261 -0.886936,2.26773 -0.786148,0.64505 -2.721282,0.64505 -2.207262,0 -2.99341,-0.68536 -0.786149,-0.69544 -0.786149,-2.53987 z"
         style="font-style:normal;font-variant:normal;font-weight:bold;font-stretch:normal;font-size:20.64142799px;font-family:serif;-inkscape-font-specification:'serif Bold';fill:#db7c52;fill-opacity:1;stroke-width:0.2318836"
         id="path2329" />
      <path
         d="m 44.10519,289.12861 v -1.21954 h 1.925055 v -12.6086 H 44.10519 v -1.21954 h 8.919758 q 2.751518,0 4.132317,0.92725 1.380799,0.92725 1.380799,2.79183 0,1.34049 -0.957488,2.12663 -0.94741,0.78615 -2.822071,0.98773 2.267735,0.21165 3.477194,1.20946 1.209459,0.9978 1.209459,2.65073 0,2.2375 -1.693242,3.29577 -1.683164,1.05828 -5.281303,1.05828 z m 5.805402,-8.76858 h 1.320326 q 1.733557,0 2.570099,-0.62488 0.836543,-0.63497 0.836543,-1.93514 0,-1.31024 -0.816385,-1.90489 -0.806306,-0.59465 -2.590257,-0.59465 h -1.320326 z m 0,7.54904 h 1.441271 q 1.925056,0 2.852307,-0.76599 0.927252,-0.76599 0.927252,-2.36852 0,-1.61261 -0.937331,-2.40884 -0.93733,-0.79623 -2.842228,-0.79623 h -1.441271 z"
         style="font-style:normal;font-variant:normal;font-weight:bold;font-stretch:normal;font-size:20.64142799px;font-family:serif;-inkscape-font-specification:'serif Bold';fill:#878787;fill-opacity:1;stroke-width:0.2318836"
         id="path2331"
         inkscape:connector-curvature="0" />
      <path
         d="m 71.680848,278.29388 v 3.19498 h -1.138907 q -0.06047,-0.8567 -0.463626,-1.26993 -0.403153,-0.42331 -1.169143,-0.42331 -1.169144,0 -1.844425,1.02804 -0.675281,1.02804 -0.675281,2.85231 v 4.2331 h 1.945213 v 1.21954 h -7.035018 v -1.21954 h 1.521902 v -8.27471 h -1.632769 v -1.21954 h 5.200672 v 1.9049 q 0.524099,-1.11875 1.380799,-1.65293 0.866779,-0.54425 2.116553,-0.54425 0.312443,0 0.755911,0.0504 0.453547,0.0403 1.038119,0.12095 z"
         style="font-style:normal;font-variant:normal;font-weight:bold;font-stretch:normal;font-size:20.64142799px;font-family:serif;-inkscape-font-specification:'serif Bold';fill:#878787;fill-opacity:1;stroke-width:0.2318836"
         id="path2333"
         inkscape:connector-curvature="0" />
      <path
         d="m 78.373186,288.28199 q 1.128828,0 1.582375,-0.96757 0.463626,-0.96757 0.463626,-3.54774 0,-2.58018 -0.453547,-3.53767 -0.453547,-0.96757 -1.592454,-0.96757 -1.138907,0 -1.602533,0.97765 -0.463626,0.96757 -0.463626,3.52759 0,2.56002 0.463626,3.53766 0.463626,0.97765 1.602533,0.97765 z m 0,1.13891 q -2.832149,0 -4.444761,-1.50175 -1.602533,-1.51182 -1.602533,-4.15247 0,-2.65073 1.602533,-4.1424 1.612612,-1.50174 4.444761,-1.50174 2.842228,0 4.44476,1.50174 1.602533,1.49167 1.602533,4.1424 0,2.64065 -1.612611,4.15247 -1.602533,1.50175 -4.434682,1.50175 z"
         style="font-style:normal;font-variant:normal;font-weight:bold;font-stretch:normal;font-size:20.64142799px;font-family:serif;-inkscape-font-specification:'serif Bold';fill:#878787;fill-opacity:1;stroke-width:0.2318836"
         id="path2335"
         inkscape:connector-curvature="0" />
      <path
         d="m 92.412983,289.12861 h -6.440367 v -1.21954 h 1.521902 v -13.25365 h -1.521902 v -1.20946 h 5.089805 v 10.06875 l 4.323815,-3.88035 h -1.280011 v -1.21954 h 4.888229 v 1.21954 h -1.985528 l -2.761597,2.47939 4.515312,5.79532 h 1.159065 v 1.21954 h -6.148082 v -1.21954 h 1.259853 l -2.973253,-3.81987 -0.997803,0.88693 v 2.93294 h 1.350562 z"
         style="font-style:normal;font-variant:normal;font-weight:bold;font-stretch:normal;font-size:20.64142799px;font-family:serif;-inkscape-font-specification:'serif Bold';fill:#878787;fill-opacity:1;stroke-width:0.2318836"
         id="path2337"
         inkscape:connector-curvature="0" />
      <path
         d="m 107.85374,283.08132 q 0,-2.11656 -0.39308,-2.96318 -0.39307,-0.8567 -1.34048,-0.8567 -0.91717,0 -1.32032,0.83654 -0.39308,0.83655 -0.39308,2.80192 v 0.18142 z m 3.92066,1.19938 h -7.36762 v 0.0806 q 0,2.07623 0.62489,3.00349 0.62489,0.91717 2.01576,0.91717 1.15907,0 1.87466,-0.61481 0.7156,-0.61481 0.91718,-1.78395 h 1.67308 q -0.43339,1.82427 -1.72348,2.68097 -1.29009,0.8567 -3.60822,0.8567 -2.78175,0 -4.27342,-1.46143 -1.48158,-1.47151 -1.48158,-4.19279 0,-2.66081 1.5219,-4.15248 1.5219,-1.49166 4.2331,-1.49166 2.66081,0 4.08193,1.57229 1.42111,1.56222 1.51182,4.58587 z"
         style="font-style:normal;font-variant:normal;font-weight:bold;font-stretch:normal;font-size:20.64142799px;font-family:serif;-inkscape-font-specification:'serif Bold';fill:#878787;fill-opacity:1;stroke-width:0.2318836"
         id="path2339"
         inkscape:connector-curvature="0" />
      <path
         d="m 123.80851,278.29388 v 3.19498 h -1.1389 q -0.0605,-0.8567 -0.46363,-1.26993 -0.40315,-0.42331 -1.16914,-0.42331 -1.16915,0 -1.84443,1.02804 -0.67528,1.02804 -0.67528,2.85231 v 4.2331 h 1.94522 v 1.21954 h -7.03502 v -1.21954 h 1.5219 v -8.27471 h -1.63277 v -1.21954 h 5.20067 v 1.9049 q 0.5241,-1.11875 1.3808,-1.65293 0.86678,-0.54425 2.11655,-0.54425 0.31245,0 0.75592,0.0504 0.45354,0.0403 1.03811,0.12095 z"
         style="font-style:normal;font-variant:normal;font-weight:bold;font-stretch:normal;font-size:20.64142799px;font-family:serif;-inkscape-font-specification:'serif Bold';fill:#878787;fill-opacity:1;stroke-width:0.2318836"
         id="path2341"
         inkscape:connector-curvature="0" />
      <path
         d="m 124.57451,288.81617 v -2.99341 h 1.13891 q 0.1411,1.19938 0.89701,1.83434 0.75591,0.62489 2.05608,0.62489 1.08851,0 1.66301,-0.37292 0.58457,-0.38299 0.58457,-1.08851 0,-0.64505 -0.37292,-0.9978 -0.36284,-0.35276 -1.42111,-0.61481 l -1.47151,-0.37292 q -1.66301,-0.41323 -2.40884,-1.17922 -0.74583,-0.77607 -0.74583,-2.08632 0,-1.74363 1.20946,-2.59025 1.20946,-0.8567 3.72916,-0.8567 0.94741,0 2.01577,0.16126 1.07843,0.15118 2.3786,0.48378 v 2.70112 h -1.13891 q -0.0907,-1.09859 -0.78615,-1.65292 -0.68536,-0.55434 -1.97545,-0.55434 -1.08851,0 -1.65292,0.35276 -0.55434,0.34268 -0.55434,1.00788 0,0.54426 0.32252,0.8567 0.32253,0.31245 1.15907,0.5241 l 1.46143,0.37292 q 2.10647,0.53418 2.91278,1.32032 0.8063,0.78615 0.8063,2.18711 0,1.81419 -1.30017,2.68097 -1.29008,0.8567 -4.02145,0.8567 -0.9978,0 -2.11655,-0.15119 -1.11875,-0.15118 -2.36852,-0.45354 z"
         style="font-size:20.64142799px;fill:#db7c52;fill-opacity:1;stroke-width:0.2318836"
         id="path2343"
         inkscape:connector-curvature="0" />
    </g>
    <rect
       id="rect33"
       width="1.3838366"
       height="13.50878"
       x="1.4574784"
       y="274.08582"
       style="fill:#db7c52;fill-opacity:1;stroke-width:0.30871204"
       ry="0" />
    <rect
       id="rect33-3"
       width="1.0790652"
       height="13.308237"
       x="3.648504"
       y="274.82153"
       style="fill:#db7c52;fill-opacity:1;stroke-width:0.27057466"
       ry="0" />
    <rect
       id="rect33-6"
       width="1.0790652"
       height="13.308237"
       x="13.559895"
       y="273.70728"
       style="fill:#db7c52;fill-opacity:1;stroke-width:0.27057466"
       ry="0"
       inkscape:transform-center-x="1.740744"
       inkscape:transform-center-y="0.080212434" />
    <rect
       id="rect33-7"
       width="1.343961"
       height="15.07303"
       x="14.404318"
       y="273.48334"
       style="fill:#db7c52;fill-opacity:1;stroke-width:0.32136354"
       ry="0" />
    <rect
       id="rect33-5"
       width="1.0790651"
       height="1.2798198"
       x="5.299408"
       y="287.37527"
       style="fill:#db7c52;fill-opacity:1;stroke-width:0.08390762"
       ry="0" />
    <rect
       id="rect33-5-3"
       width="1.0790651"
       height="1.2798198"
       x="11.335717"
       y="272.78012"
       style="fill:#db7c52;fill-opacity:1;stroke-width:0.08390762"
       ry="0" />
    <rect
       id="rect33-56"
       width="1.3838367"
       height="13.50878"
       x="4.1635089"
       y="274.55353"
       style="fill:#db7c52;fill-opacity:1;stroke-width:0.30871207"
       ry="0" />
    <rect
       id="rect33-56-2"
       width="1.3838369"
       height="13.50878"
       x="13.234389"
       y="273.70728"
       style="fill:#db7c52;fill-opacity:1;stroke-width:0.30871207"
       ry="0" />
  </g>
</svg>
